<svg width="1200" height="630" viewBox="0 0 1200 630" fill="none" xmlns="http://www.w3.org/2000/svg">
  <rect width="1200" height="630" rx="36" fill="#020817"/>
  <rect x="40" y="40" width="1120" height="220" rx="24" fill="#0B1521" stroke="#1E3A65" stroke-width="2"/>
  <rect x="64" y="72" width="520" height="48" rx="12" fill="#0F2945"/>
  <rect x="64" y="136" width="320" height="24" rx="8" fill="#173D6F"/>
  <rect x="64" y="176" width="720" height="16" rx="8" fill="#11243A"/>
  <rect x="64" y="200" width="620" height="16" rx="8" fill="#11243A"/>
  <rect x="64" y="224" width="540" height="16" rx="8" fill="#11243A"/>
  <rect x="64" y="260" width="520" height="16" rx="8" fill="#11243A"/>
  <g opacity="0.18">
    <rect x="640" y="120" width="432" height="120" rx="20" fill="#18B3FF"/>
    <rect x="660" y="144" width="392" height="18" rx="9" fill="#0A1723"/>
    <rect x="660" y="176" width="320" height="18" rx="9" fill="#0A1723"/>
    <rect x="660" y="208" width="360" height="18" rx="9" fill="#0A1723"/>
  </g>
  <rect x="40" y="300" width="1120" height="286" rx="32" fill="#07101C" stroke="#1C3C6C" stroke-width="2"/>
  <rect x="64" y="330" width="320" height="28" rx="14" fill="#0F2842"/>
  <rect x="64" y="374" width="1080" height="22" rx="11" fill="#0B2033"/>
  <rect x="64" y="408" width="880" height="22" rx="11" fill="#0B2033"/>
  <rect x="64" y="442" width="980" height="22" rx="11" fill="#0B2033"/>
  <rect x="64" y="476" width="640" height="22" rx="11" fill="#0B2033"/>
  <circle cx="164" cy="335" r="8" fill="#FF5F56"/>
  <circle cx="190" cy="335" r="8" fill="#FFBD2E"/>
  <circle cx="216" cy="335" r="8" fill="#27C93F"/>
  <text x="100" y="72" fill="#7F90B3" font-size="34" font-family="Inter, sans-serif" font-weight="700">ZsK AI</text>
  <text x="100" y="117" fill="#FFFFFF" font-size="48" font-family="Inter, sans-serif" font-weight="800">Host AI Free & Custom</text>
  <text x="100" y="165" fill="#99A9C6" font-size="20" font-family="Inter, sans-serif">Local demo agent, custom ohmaba endpoint, and Vercel-ready deployment</text>
  <path d="M340 133H420" stroke="#18B3FF" stroke-width="4" stroke-linecap="round"/>
</svg>
